<svg width="85" height="60" viewBox="0 0 85 60" fill="none" xmlns="http://www.w3.org/2000/svg">
<path d="M42.5 31.4167H48.875V36.25H42.5V31.4167ZM53.125 36.25H59.5V31.4167H53.125V36.25ZM42.5 45.9167H48.875V41.0833H42.5V45.9167ZM53.125 45.9167H59.5V41.0833H53.125V45.9167ZM42.5 16.9167H48.875V12.0833H42.5V16.9167ZM53.125 16.9167H59.5V12.0833H53.125V16.9167ZM42.5 26.5833H48.875V21.75H42.5V26.5833ZM53.125 26.5833H59.5V21.75H53.125V26.5833ZM85 19.3333V58H34V7.25C34 5.32718 34.6716 3.48311 35.8672 2.12348C37.0627 0.763837 38.6842 0 40.375 0L61.625 0C63.3158 0 64.9373 0.763837 66.1328 2.12348C67.3284 3.48311 68 5.32718 68 7.25V12.0833H78.625C80.3158 12.0833 81.9373 12.8472 83.1328 14.2068C84.3284 15.5664 85 17.4105 85 19.3333ZM63.75 7.25C63.75 6.60906 63.5261 5.99437 63.1276 5.54116C62.7291 5.08795 62.1886 4.83333 61.625 4.83333H40.375C39.8114 4.83333 39.2709 5.08795 38.8724 5.54116C38.4739 5.99437 38.25 6.60906 38.25 7.25V53.1667H63.75V7.25ZM80.75 19.3333C80.75 18.6924 80.5261 18.0777 80.1276 17.6245C79.7291 17.1713 79.1886 16.9167 78.625 16.9167H68V53.1667H80.75V19.3333ZM72.25 36.25H76.5V31.4167H72.25V36.25ZM72.25 45.9167H76.5V41.0833H72.25V45.9167ZM72.25 26.5833H76.5V21.75H72.25V26.5833Z" fill="white"/>
<path d="M36.4167 22.5H34.3083C33.8635 20.3839 32.6865 18.4825 30.9757 17.1163C29.265 15.7502 27.1251 15.0027 24.9167 15H21.0833C18.8749 15.0027 16.735 15.7502 15.0243 17.1163C13.3135 18.4825 12.1365 20.3839 11.6917 22.5H9.58333C7.04261 22.503 4.60682 23.4917 2.81025 25.2492C1.01369 27.0067 0.00304339 29.3895 0 31.875V50.625C0.00304339 53.1105 1.01369 55.4933 2.81025 57.2508C4.60682 59.0083 7.04261 59.997 9.58333 60H36.4167C38.9574 59.997 41.3932 59.0083 43.1897 57.2508C44.9863 55.4933 45.997 53.1105 46 50.625V31.875C45.997 29.3895 44.9863 27.0067 43.1897 25.2492C41.3932 23.4917 38.9574 22.503 36.4167 22.5ZM21.0833 18.75H24.9167C26.1017 18.7548 27.2562 19.1177 28.2223 19.7889C29.1885 20.4602 29.919 21.407 30.314 22.5H15.686C16.081 21.407 16.8115 20.4602 17.7777 19.7889C18.7438 19.1177 19.8983 18.7548 21.0833 18.75ZM9.58333 26.25H35C36.525 26.25 39.4042 26.8426 40.4825 27.8975C41.5609 28.9524 42.1667 30.3832 42.1667 31.875V37.5H3.83333V31.875C3.83333 30.3832 4.43914 28.9524 5.51747 27.8975C6.5958 26.8426 8.05834 26.25 9.58333 26.25ZM36.4167 56.25H9.58333C8.05834 56.25 6.5958 55.6574 5.51747 54.6025C4.43914 53.5476 3.83333 52.1168 3.83333 50.625V42.5H20.5L21.0833 43.125C21.0833 43.6223 21.2853 44.0992 21.6447 44.4508C22.0042 44.8025 22.4917 45 23 45C23.5083 45 23.9958 44.8025 24.3553 44.4508C24.7147 44.0992 24.9167 43.6223 24.9167 43.125V42.5H42.1667V50.625C42.1667 52.1168 41.5609 53.5476 40.4825 54.6025C39.4042 55.6574 37.9417 56.25 36.4167 56.25Z" fill="#FA9500"/>
</svg>
