<svg width="20" height="20" viewBox="0 0 20 20" fill="none" xmlns="http://www.w3.org/2000/svg">
<g clip-path="url(#clip0_14935_2)">
<path d="M15.7275 9.18413H4.27247C3.92898 9.18388 3.59298 9.08378 3.30534 8.89602C3.01771 8.70826 2.79086 8.44094 2.65241 8.12659C2.51396 7.81224 2.46987 7.46443 2.52551 7.12547C2.58115 6.78652 2.73412 6.47105 2.96581 6.21746L8.37164 0.726629C8.58199 0.500565 8.83711 0.320779 9.12076 0.198718C9.4044 0.0766566 9.71035 0.0149957 10.0191 0.017661C10.3279 0.0203263 10.6328 0.0872593 10.9143 0.214198C11.1957 0.341137 11.4477 0.525301 11.6541 0.754963L17.0133 6.19496C17.2512 6.4464 17.4102 6.762 17.4707 7.10278C17.5311 7.44356 17.4905 7.7946 17.3537 8.11255C17.217 8.43049 16.9901 8.70141 16.7011 8.89185C16.412 9.08228 16.0736 9.18389 15.7275 9.18413V9.18413ZM4.17581 7.36413C4.1683 7.37809 4.16436 7.39369 4.16436 7.40955C4.16436 7.4254 4.1683 7.441 4.17581 7.45496C4.18242 7.47447 4.19536 7.49121 4.21257 7.50254C4.22978 7.51386 4.25027 7.51911 4.27081 7.51746H15.7275C15.748 7.51911 15.7685 7.51386 15.7857 7.50254C15.8029 7.49121 15.8159 7.47447 15.8225 7.45496C15.8327 7.43694 15.8365 7.41594 15.8332 7.39548C15.8298 7.37501 15.8196 7.35631 15.8041 7.34246L10.44 1.89663C10.3864 1.8315 10.3193 1.77878 10.2433 1.74209C10.1673 1.7054 10.0843 1.68563 9.99997 1.68413C9.92143 1.68349 9.84365 1.69959 9.77181 1.73134C9.69997 1.7631 9.63571 1.80978 9.58331 1.8683L4.17497 7.36496L4.17581 7.36413ZM9.99997 20.0091C9.6878 20.009 9.37916 19.9431 9.09415 19.8158C8.80914 19.6884 8.55416 19.5024 8.34581 19.27L2.98664 13.8333C2.74868 13.582 2.58958 13.2664 2.52903 12.9256C2.46847 12.5849 2.5091 12.2338 2.6459 11.9159C2.7827 11.5979 3.00967 11.3271 3.29876 11.1367C3.58784 10.9464 3.92636 10.845 4.27247 10.845H15.7275C16.0708 10.8451 16.4067 10.9451 16.6942 11.1327C16.9817 11.3203 17.2085 11.5875 17.347 11.9017C17.4855 12.2158 17.5296 12.5635 17.474 12.9023C17.4185 13.2411 17.2657 13.5564 17.0341 13.81L11.6283 19.3008C11.421 19.5255 11.1691 19.7045 10.8888 19.8265C10.6084 19.9484 10.3057 20.0106 9.99997 20.0091ZM4.27247 12.5091C4.25234 12.5092 4.23267 12.5151 4.21583 12.5262C4.199 12.5372 4.18572 12.5529 4.17761 12.5713C4.1695 12.5898 4.1669 12.6101 4.17013 12.63C4.17336 12.6499 4.18228 12.6684 4.19581 12.6833L9.55997 18.1283C9.61343 18.1937 9.68046 18.2468 9.75643 18.2837C9.8324 18.3207 9.9155 18.3408 9.99997 18.3425C10.0786 18.3428 10.1565 18.3265 10.2283 18.2944C10.3002 18.2624 10.3644 18.2154 10.4166 18.1566L15.8275 12.6566C15.8351 12.6428 15.839 12.6274 15.839 12.6116C15.839 12.5959 15.8351 12.5804 15.8275 12.5666C15.8207 12.5473 15.8077 12.5307 15.7905 12.5196C15.7733 12.5084 15.7529 12.5033 15.7325 12.505L4.27247 12.5091Z" fill="#FA9500"/>
</g>
<defs>
<clipPath id="clip0_14935_2">
<rect width="20" height="20" fill="white"/>
</clipPath>
</defs>
</svg>
